<svg xmlns="http://www.w3.org/2000/svg" xmlns:xlink="http://www.w3.org/1999/xlink" width="218.101" height="95.966" viewBox="0 0 218.101 95.966"><defs><style>.a{fill:#532e1f;}.b{fill:url(#a);}.c{fill:#d16500;}.d{fill:url(#b);}.e,.f,.g,.h,.j{fill:#fff;}.e,.h{opacity:0.5;}.e{mix-blend-mode:overlay;isolation:isolate;}.f{opacity:0.7;}.g{opacity:0.9;}.i,.j{font-size:42px;font-family:TitanOne, Titan One;}.i{opacity:0.307;}</style><linearGradient id="a" x1="0.44" y1="-0.444" x2="0.556" y2="1.374" gradientUnits="objectBoundingBox"><stop offset="0.015" stop-color="#ffd992"/><stop offset="0.266" stop-color="#ffd633"/><stop offset="0.711" stop-color="#ff6c23"/><stop offset="0.873" stop-color="#f2c233"/></linearGradient><linearGradient id="b" x1="0.5" y1="1.367" x2="0.5" y2="-0.338" gradientUnits="objectBoundingBox"><stop offset="0" stop-color="#ffb730"/><stop offset="0.699" stop-color="#ffd21f"/><stop offset="1" stop-color="#fc0"/></linearGradient></defs><g transform="translate(0)"><g transform="translate(15095.129 13807.513)"><path class="a" d="M805.091,353.079V404.1a22.457,22.457,0,0,1-22.461,22.459H609.456A22.462,22.462,0,0,1,586.99,404.1V353.079a22.484,22.484,0,0,1,22.466-22.488H782.629A22.479,22.479,0,0,1,805.091,353.079Z" transform="translate(-15682.119 -14138.104)"/><path class="b" d="M800.25,351.78v50.148a19.786,19.786,0,0,1-19.787,19.789h-172.3a19.788,19.788,0,0,1-19.789-19.789V351.78a19.8,19.8,0,0,1,19.789-19.8h172.3A19.8,19.8,0,0,1,800.25,351.78Z" transform="translate(-15680.389 -14136.372)"/><path class="c" d="M780.963,423.12h-172.3a20.71,20.71,0,0,1-20.689-20.689V352.283a20.723,20.723,0,0,1,20.689-20.709h172.3a20.724,20.724,0,0,1,20.691,20.709v50.148A20.711,20.711,0,0,1,780.963,423.12Zm-172.3-89.742a18.919,18.919,0,0,0-18.889,18.905v50.148a18.911,18.911,0,0,0,18.889,18.887h172.3a18.91,18.91,0,0,0,18.892-18.887V352.283a18.918,18.918,0,0,0-18.892-18.905Z" transform="translate(-15680.889 -14136.875)"/><rect class="d" width="190.276" height="68.125" rx="17" transform="translate(-15081.211 -13793.587)"/><path class="e" d="M800.25,351.78v6.467c-23.188,11.109-81.226,17.933-115.687,17.933-34.484,0-73-6.824-96.188-17.933V351.78a19.8,19.8,0,0,1,19.789-19.8h172.3A19.8,19.8,0,0,1,800.25,351.78Z" transform="translate(-15680.389 -14136.372)"/><path class="f" d="M600.3,339.813c.715.967.128,2.762-.864,3.5s-2.884,1.075-3.6.112.013-2.879,1.005-3.612S599.582,338.848,600.3,339.813Z" transform="translate(-15671.429 -14127.381)"/><path class="g" d="M599.923,335.3c1.539,1.487.859,4.978-.8,6.689s-5.063,3.037-6.6,1.55-.61-5.232,1.046-6.944S598.4,333.811,599.923,335.3Z" transform="translate(-15676.181 -14133.101)"/><path class="h" d="M682.036,366.382c.776.837-.5,3.426-2.083,4.883s-4.343,2.908-5.117,2.067.733-3.642,2.319-5.106S681.262,365.543,682.036,366.382Z" transform="translate(-15572.639 -14093.732)"/><g transform="translate(1 -4)"><text class="i" transform="translate(-15041 -13739)"><tspan x="0" y="0">PLAY</tspan></text><text class="j" transform="translate(-15040 -13743)"><tspan x="0" y="0">PLAY</tspan></text></g></g></g></svg>